<svg width="27" height="38" viewBox="0 0 27 38" fill="none" xmlns="http://www.w3.org/2000/svg">
<path opacity="0.18" fill-rule="evenodd" clip-rule="evenodd" d="M13.5 38C20.9558 38 27 35.5376 27 32.5C27 29.4624 20.9558 27 13.5 27C6.04416 27 0 29.4624 0 32.5C0 35.5376 6.04416 38 13.5 38Z" fill="#171717"/>
<path fill-rule="evenodd" clip-rule="evenodd" d="M13.1079 14.5229C11.1011 14.5229 9.47625 12.8973 9.47625 10.8912C9.47625 8.88741 11.1011 7.25955 13.1079 7.25955C15.114 7.25955 16.7388 8.88741 16.7388 10.8912C16.7388 12.8973 15.114 14.5229 13.1079 14.5229ZM20.7782 3.22016C16.4824 -1.07339 9.51785 -1.07339 5.22128 3.22016C1.35057 7.09087 0.91562 14.3807 4.20159 18.7597L13.0013 31.4656L21.8009 18.7597C25.0839 14.3807 24.6489 7.09087 20.7782 3.22016Z" fill="#EF5350"/>
</svg>
